<svg width="195" height="71" viewBox="0 0 195 71" fill="none" xmlns="http://www.w3.org/2000/svg">
<rect width="195" height="71" fill="#FB97AF"/>
<path d="M2229.82 1158.03C2229.82 1174.6 2216.39 1188.03 2199.82 1188.03H-36C-52.5686 1188.03 -66 1174.6 -66 1158.03V-32.9999C-66 -49.5685 -52.5686 -63 -36 -63H2199.82C2216.39 -63 2229.82 -49.5685 2229.82 -33V1158.03Z" fill="url(#paint0_linear_0_1)"/>
<path d="M-66 1170C-66 1186.57 -52.5685 1200 -36 1200H1193.83C1210.4 1200 1223.83 1186.57 1223.83 1170V-20.5624C1223.83 -37.131 1210.4 -50.5624 1193.83 -50.5624H-36C-52.5685 -50.5624 -66 -37.131 -66 -20.5624V1170Z" fill="url(#paint1_linear_0_1)"/>
<path d="M26.1067 53.4912C23.2812 53.4912 20.4329 52.2493 17.5618 49.7656L16.9807 52.5684H6.93188L16.4338 8.03223L26.7903 6.66504L18.3821 45.9033C19.6581 46.8376 20.9911 47.3047 22.3811 47.3047C23.7255 47.3047 25.0015 46.8831 26.2092 46.04C27.4397 45.1969 28.5676 44.0007 29.593 42.4512C31.4843 39.6029 33.0224 35.7064 34.2073 30.7617C35.2782 26.1361 35.8137 21.3851 35.8137 16.5088C35.8137 11.9515 34.8795 8.55632 33.011 6.32324C31.2792 4.29525 28.8069 3.28125 25.594 3.28125C22.9963 3.28125 20.581 3.66862 18.3479 4.44336C16.1148 5.2181 14.178 6.33464 12.5374 7.79297C10.8512 9.29688 9.55233 11.1084 8.64087 13.2275C7.72941 15.3467 7.27368 17.7051 7.27368 20.3027C7.27368 21.7611 7.43319 22.9232 7.7522 23.7891C7.84334 24.0853 7.95728 24.3473 8.09399 24.5752C8.18514 24.7347 8.23071 24.8942 8.23071 25.0537C5.79256 25.0537 3.93547 24.5524 2.65942 23.5498C1.38338 22.5244 0.745361 20.861 0.745361 18.5596C0.745361 16.9873 1.05298 15.4378 1.66821 13.9111C2.28345 12.3617 3.17212 10.8919 4.33423 9.50195C5.47355 8.13477 6.84074 6.88151 8.43579 5.74219C10.0536 4.58008 11.8196 3.57747 13.7336 2.73438C17.7896 0.957031 22.1418 0.0683594 26.7903 0.0683594C31.0969 0.0683594 34.72 1.014 37.6594 2.90527C40.3482 4.65983 42.3534 7.09798 43.675 10.2197C44.8827 13.182 45.4866 16.5202 45.4866 20.2344C45.4866 22.8548 45.2473 25.5094 44.7688 28.1982C44.3131 30.887 43.6523 33.4847 42.7864 35.9912C41.9205 38.4521 40.8837 40.7536 39.676 42.8955C38.4911 45.0146 37.1809 46.8604 35.7454 48.4326C34.2642 50.0505 32.7034 51.3037 31.0627 52.1924C29.4449 53.0583 27.7929 53.4912 26.1067 53.4912ZM55.1594 52.9785C52.4934 52.9785 50.3401 52.1468 48.6995 50.4834C46.7854 48.5238 45.8284 45.6071 45.8284 41.7334C45.8284 40.0928 45.9993 38.361 46.3411 36.5381C46.6601 34.7152 47.1386 32.915 47.7766 31.1377C49.2349 27.1273 51.2288 23.8916 53.7581 21.4307C56.6747 18.6279 60.0357 17.2266 63.8411 17.2266C65.7323 17.2266 67.1451 17.557 68.0793 18.2178C69.0364 18.8558 69.5149 19.7103 69.5149 20.7812V21.2939L70.2668 17.5684H80.3499L75.3254 41.3574C75.1204 42.041 75.0178 42.793 75.0178 43.6133C75.0178 45.6185 75.9749 46.6211 77.8889 46.6211C79.165 46.6211 80.3271 45.9717 81.3752 44.6729C82.2639 43.5791 82.9931 42.0296 83.5627 40.0244H86.5022C85.2489 43.5791 83.7336 46.3932 81.9563 48.4668C80.4524 50.1758 78.7548 51.4062 76.8635 52.1582C75.4736 52.7051 74.0038 52.9785 72.4543 52.9785C70.4719 52.9785 68.8883 52.443 67.7034 51.3721C66.5413 50.2783 65.8349 48.6719 65.5842 46.5527C64.2626 48.4212 62.8726 49.8796 61.4143 50.9277C59.5458 52.2949 57.4609 52.9785 55.1594 52.9785ZM59.7053 46.2109C60.2294 46.2109 60.7763 46.0742 61.3459 45.8008C61.9384 45.5273 62.5081 45.14 63.0549 44.6387C64.2854 43.4538 65.1057 41.9157 65.5159 40.0244L68.8655 24.2334C68.8655 24.0055 68.8085 23.7435 68.6946 23.4473C68.6034 23.1283 68.4667 22.832 68.2844 22.5586C67.7375 21.8978 66.9742 21.5674 65.9944 21.5674C65.0601 21.5674 64.1487 21.875 63.26 22.4902C62.3941 23.1055 61.5738 23.96 60.7991 25.0537C59.4319 27.0361 58.304 29.6224 57.4153 32.8125C57.0051 34.2253 56.6975 35.6266 56.4924 37.0166C56.2874 38.3838 56.1848 39.6257 56.1848 40.7422C56.1848 43.0664 56.6178 44.6387 57.4836 45.459C57.7799 45.778 58.1103 45.9831 58.4749 46.0742C58.8394 46.1654 59.2496 46.2109 59.7053 46.2109ZM90.5354 52.9785C88.3023 52.9785 86.5364 52.3177 85.2375 50.9961C83.7792 49.5378 83.05 47.4072 83.05 44.6045C83.05 43.2829 83.2323 41.7562 83.5969 40.0244L87.801 20.3711H85.4768L86.0579 17.5684H88.3479L90.467 7.89551L100.823 6.49414L98.4309 17.5684H102.635L102.088 20.3711H97.884L93.4065 41.3574C93.2242 41.9499 93.1331 42.7018 93.1331 43.6133C93.1331 44.5703 93.3495 45.2425 93.7825 45.6299C94.2382 46.0173 94.9674 46.2109 95.97 46.2109C96.6536 46.2109 97.3144 46.0628 97.9524 45.7666C98.6132 45.4476 99.217 45.0146 99.7639 44.4678C100.88 43.3512 101.724 41.8701 102.293 40.0244H105.233C103.979 43.5563 102.407 46.3704 100.516 48.4668C98.9208 50.1758 97.1207 51.4062 95.1155 52.1582C93.6571 52.7051 92.1305 52.9785 90.5354 52.9785ZM114.017 13.7744C113.265 13.7744 112.547 13.6377 111.864 13.3643C111.18 13.068 110.587 12.6693 110.086 12.168C109.585 11.6895 109.186 11.1084 108.89 10.4248C108.616 9.74121 108.48 9.02344 108.48 8.27148C108.48 7.51953 108.616 6.80176 108.89 6.11816C109.186 5.43457 109.585 4.83073 110.086 4.30664C110.587 3.78255 111.18 3.38379 111.864 3.11035C112.547 2.81413 113.265 2.66602 114.017 2.66602C114.769 2.66602 115.487 2.81413 116.17 3.11035C116.854 3.38379 117.458 3.78255 117.982 4.30664C118.506 4.83073 118.905 5.43457 119.178 6.11816C119.474 6.80176 119.622 7.51953 119.622 8.27148C119.622 9.02344 119.474 9.74121 119.178 10.4248C118.905 11.1084 118.506 11.6895 117.982 12.168C117.458 12.6693 116.854 13.068 116.17 13.3643C115.487 13.6377 114.769 13.7744 114.017 13.7744ZM109.266 52.9785C107.033 52.9785 105.267 52.3177 103.968 50.9961C102.51 49.5378 101.781 47.4072 101.781 44.6045C101.781 43.2829 101.963 41.7562 102.327 40.0244L107.078 17.5684H117.161L112.137 41.3574C111.955 41.9499 111.864 42.7018 111.864 43.6133C111.864 44.5703 112.08 45.2425 112.513 45.6299C112.969 46.0173 113.698 46.2109 114.7 46.2109C115.384 46.2109 116.045 46.0628 116.683 45.7666C117.344 45.4476 117.948 45.0146 118.494 44.4678C119.611 43.3512 120.454 41.8701 121.024 40.0244H123.963C122.71 43.5563 121.138 46.3704 119.246 48.4668C117.651 50.1758 115.851 51.4062 113.846 52.1582C112.388 52.7051 110.861 52.9785 109.266 52.9785ZM146.317 52.9785C143.423 52.9785 141.281 52.1582 139.891 50.5176C138.683 49.1048 138.079 47.2933 138.079 45.083C138.079 44.0348 138.205 42.8158 138.455 41.4258C138.729 40.0358 139.128 38.2471 139.652 36.0596C140.176 33.8265 140.563 32.0492 140.814 30.7275C141.087 29.3831 141.224 28.221 141.224 27.2412C141.224 24.8486 140.381 23.6523 138.695 23.6523C137.51 23.6523 136.416 24.279 135.413 25.5322C134.57 26.6032 133.841 28.1299 133.226 30.1123L128.475 52.5684H118.392L125.809 17.5684H135.892L135.14 21.1914C136.507 19.6647 137.977 18.5938 139.549 17.9785C140.711 17.5228 141.964 17.2949 143.309 17.2949C145.679 17.2949 147.547 17.9102 148.914 19.1406C150.373 20.485 151.102 22.5016 151.102 25.1904C151.102 26.8083 150.806 28.916 150.213 31.5137C150.054 32.2656 149.792 33.3936 149.427 34.8975C148.766 37.4268 148.288 39.4434 147.991 40.9473C147.809 41.9043 147.718 42.679 147.718 43.2715C147.718 44.2057 147.923 44.9349 148.333 45.459C148.766 45.9603 149.495 46.2109 150.521 46.2109C151.911 46.2109 153.084 45.6413 154.041 44.502C154.77 43.6361 155.557 42.1436 156.4 40.0244H159.339C157.607 45.1514 155.42 48.7402 152.777 50.791C150.908 52.2493 148.755 52.9785 146.317 52.9785ZM168.773 70.0684C167.679 70.0684 166.654 69.9202 165.697 69.624C164.762 69.3506 163.953 68.929 163.27 68.3594C162.541 67.7897 161.971 67.0719 161.561 66.2061C161.151 65.363 160.946 64.3831 160.946 63.2666C160.946 60.6234 162.187 58.3561 164.671 56.4648C166.54 55.0749 169.103 53.8672 172.362 52.8418L173.216 49.1504C170.823 51.7025 168.021 52.9785 164.808 52.9785C162.142 52.9785 159.989 52.1468 158.348 50.4834C156.434 48.5238 155.477 45.6071 155.477 41.7334C155.477 40.0928 155.648 38.361 155.99 36.5381C156.309 34.7152 156.787 32.915 157.425 31.1377C158.883 27.1273 160.877 23.8916 163.406 21.4307C166.323 18.6279 169.684 17.2266 173.49 17.2266C175.381 17.2266 176.794 17.557 177.728 18.2178C178.685 18.8558 179.163 19.7103 179.163 20.7812V21.1914L179.915 17.5684H189.998L183.06 50.0391C185.27 49.3099 187.036 48.2161 188.358 46.7578C189.793 45.1855 190.967 42.9411 191.878 40.0244H194.818C193.564 44.1715 191.696 47.373 189.212 49.6289C187.389 51.2695 185.133 52.4316 182.445 53.1152L181.385 58.1738C180.496 62.64 178.719 65.8757 176.053 67.8809C174.116 69.3392 171.689 70.0684 168.773 70.0684ZM169.354 46.2109C170.356 46.2109 171.416 45.7438 172.532 44.8096C173.74 43.7614 174.549 42.4056 174.959 40.7422L178.514 24.165C178.514 23.9372 178.457 23.6751 178.343 23.3789C178.252 23.0827 178.115 22.8092 177.933 22.5586C177.386 21.8978 176.623 21.5674 175.643 21.5674C174.709 21.5674 173.797 21.875 172.908 22.4902C172.043 23.1055 171.222 23.96 170.448 25.0537C169.08 27.0361 167.952 29.6224 167.064 32.8125C166.654 34.2253 166.346 35.6266 166.141 37.0166C165.936 38.3838 165.833 39.6257 165.833 40.7422C165.833 43.0664 166.266 44.6387 167.132 45.459C167.428 45.778 167.759 45.9831 168.123 46.0742C168.488 46.1654 168.898 46.2109 169.354 46.2109ZM167.166 64.5996C167.895 64.5996 168.647 64.0869 169.422 63.0615C170.197 62.0589 170.801 60.498 171.234 58.3789L171.644 56.3623C169.525 57.1598 167.941 57.9688 166.893 58.7891C165.503 59.8372 164.808 61.0107 164.808 62.3096C164.808 62.9248 165.002 63.4375 165.389 63.8477C165.822 64.349 166.414 64.5996 167.166 64.5996Z" fill="url(#paint2_linear_0_1)"/>
<rect x="-74" y="-71" width="2313.89" height="1265.58" rx="40" stroke="#FBFBFB" stroke-width="16"/>
<defs>
<linearGradient id="paint0_linear_0_1" x1="2047.79" y1="1207.58" x2="8.74277" y2="1232.31" gradientUnits="userSpaceOnUse">
<stop/>
<stop offset="1"/>
</linearGradient>
<linearGradient id="paint1_linear_0_1" x1="8.95167" y1="1219.54" x2="1154.64" y2="1227.35" gradientUnits="userSpaceOnUse">
<stop/>
<stop offset="0.9999" stop-opacity="0"/>
<stop offset="1" stop-opacity="0"/>
</linearGradient>
<linearGradient id="paint2_linear_0_1" x1="0.335205" y1="64.0391" x2="257.384" y2="63.45" gradientUnits="userSpaceOnUse">
<stop stop-color="#FF0000"/>
<stop offset="0.234375" stop-color="#F5C6C6"/>
<stop offset="0.9999" stop-color="#FFFBFB"/>
<stop offset="1" stop-color="white"/>
</linearGradient>
</defs>
</svg>
